{"title":"Naruto Episodes 81-96 The Search for Tsunade Learn Rasengan MP4","uid":7924307,"size":3370602224,"categoryP":"video","categoryS":"tv_shows","magnet":"?xt=urn:btih:4618f3c73ee49dac44d5fbc51d32dbf138e33e83&amp;dn=Naruto+Episodes+81-96+The+Search+for+Tsunade+Learn+Rasengan+MP4+&amp;tr=udp%3A%2F%2Ftracker.openbittorrent.com%3A80&amp;tr=udp%3A%2F%2Fopen.demonii.com%3A1337&amp;tr=udp%3A%2F%2Ftracker.coppersurfer.tk%3A6969&amp;tr=udp%3A%2F%2Fexodus.desync.com%3A6969","seeders":0,"leechers":0,"uploader":"OOTR","files":1,"time":1355544330,"description":"Naruto Episodes 81-96\n\nEdited to omit intros/outros and promote continuity.\n\nPlease SEED and enjoy! Leave a comment if you like.\n\nFormat                                   : MPEG-4\nCodec ID                                 : M4V \nFile size                                : 3.14 GiB\nDuration                                 : 5h 11mn\nOverall bit rate mode                    : Variable\nOverall bit rate                         : 1 443 Kbps\nEncoded date                             : UTC 2012-12-13 11:03:45\n\nVideo\nID                                       : 1\nFormat                                   : AVC\nFormat/Info                              : Advanced Video Codec\nFormat profile                           : &lt;a class=&quot;__cf_email__&quot; href=&quot;/cdn-cgi/l/email-protection&quot; data-cfemail=&quot;10527163757c797e75505c233e20&quot;&gt;[email&amp;#160;protected]&lt;/a&gt;&lt;script cf-hash='f9e31' type=&quot;text/javascript&quot;&gt;\n/* &lt;![CDATA[ */!function(){try{var t=&quot;currentScript&quot;in document?document.currentScript:function(){for(var t=document.getElementsByTagName(&quot;script&quot;),e=t.length;e--;)if(t[e].getAttribute(&quot;cf-hash&quot;))return t[e]}();if(t&amp;&amp;t.previousSibling){var e,r,n,i,c=t.previousSibling,a=c.getAttribute(&quot;data-cfemail&quot;);if(a){for(e=&quot;&quot;,r=parseInt(a.substr(0,2),16),n=2;a.length-n;n+=2)i=parseInt(a.substr(n,2),16)^r,e+=String.fromCharCode(i);e=document.createTextNode(e),c.parentNode.replaceChild(e,c)}}}catch(u){}}();/* ]]&gt; */&lt;/script&gt;\nFormat settings, CABAC                   : No\nFormat settings, ReFrames                : 2 frames\nCodec ID                                 : avc1\nCodec ID/Info                            : Advanced Video Coding\nDuration                                 : 5h 11mn\nSource duration                          : 5h 11mn\nBit rate mode                            : Variable\nBit rate                                 : 1 315 Kbps\nWidth                                    : 640 pixels\nHeight                                   : 480 pixels\nDisplay aspect ratio                     : 4:3\nFrame rate mode                          : Variable\nFrame rate                               : 23.976 fps\nMinimum frame rate                       : 23.976 fps\nMaximum frame rate                       : 24.000 fps\nStandard                                 : NTSC\nColor space                              : YUV\nChroma subsampling                       : 4:2:0\nBit depth                                : 8 bits\nScan type                                : Progressive\nBits/(Pixel*Frame)                       : 0.179\nStream size                              : 2.86 GiB (91%)\nSource stream size                       : 2.86 GiB (91%)\nLanguage                                 : English\nEncoded date                             : UTC 2012-12-13 11:03:45\n\nAudio\nID                                       : 2\nFormat                                   : AAC\nFormat/Info                              : Advanced Audio Codec\nFormat profile                           : LC\nCodec ID                                 : 40\nDuration                                 : 5h 11mn\nSource duration                          : 5h 11mn\nBit rate mode                            : Variable\nBit rate                                 : 126 Kbps\nMaximum bit rate                         : 219 Kbps\nChannel(s)                               : 2 channels\nChannel positions                        : Front: L R\nSampling rate                            : 44.1 KHz\nCompression mode                         : Lossy\nStream size                              : 280 MiB (9%)","torrent":{"xt":"urn:btih:4618f3c73ee49dac44d5fbc51d32dbf138e33e83","amp;dn":"Naruto+Episodes+81-96+The+Search+for+Tsunade+Learn+Rasengan+MP4+","amp;tr":["udp%3A%2F%2Ftracker.openbittorrent.com%3A80","udp%3A%2F%2Fopen.demonii.com%3A1337","udp%3A%2F%2Ftracker.coppersurfer.tk%3A6969","udp%3A%2F%2Fexodus.desync.com%3A6969"],"infoHash":"4618f3c73ee49dac44d5fbc51d32dbf138e33e83","infoHashBuffer":{"type":"Buffer","data":[70,24,243,199,62,228,157,172,68,213,251,197,29,50,219,241,56,227,62,131]},"announce":[],"urlList":[]}}